<svg xmlns="http://www.w3.org/2000/svg" width="104" height="72" viewBox="0 0 520 360" role="img" aria-labelledby="title desc">
  <title id="title">CQA rugby ball logo</title>
  <desc id="desc">White rugby ball mark with C.Q.A lettering.</desc>
  <g fill="none" stroke="#fff" stroke-linecap="round" stroke-linejoin="round">
    <ellipse cx="260" cy="180" rx="214" ry="128" stroke-width="22" transform="rotate(-19 260 180)"/>
    <path d="M78 222C153 126 315 63 421 82" stroke-width="30"/>
    <path d="M66 254C118 324 264 318 402 236 429 220 452 201 471 181" stroke-width="34"/>
    <path d="M129 306C199 332 332 302 434 213" stroke-width="14"/>
  </g>
  <g fill="#fff" stroke="#fff" stroke-linejoin="round" stroke-width="5" transform="translate(128 122) rotate(-9 115 47) scale(1.14)">
    <path d="M37.3 86.1c-11.6 2-21.1-.5-28.4-7.7C1.7 71.4-1.2 61.2.4 48 1.8 35.1 6.6 24.2 14.8 15.5 23.1 6.7 32.6 1.6 43.4.2c9.8-1.3 18 .3 24.5 4.8 6.5 4.5 10.5 11.2 12.1 20l-18.4 2.5c-1.1-4.4-3.1-7.6-6.1-9.6-3-2.1-6.8-2.8-11.5-2.2-6.4.8-11.9 4.2-16.3 10.2-4.4 5.9-7.3 13.7-8.6 23.2-1.2 9.5.1 15.8 3.8 19.1 3.7 3.2 8.6 4.3 14.8 3.2 4.9-.8 9.2-3 12.8-6.6 3.6-3.5 6.3-8.2 8.1-14l17.9-2.7c-2.7 10.6-7.8 19.2-15.1 25.9-7.3 6.6-15.4 10.7-24.1 12.1Z"/>
    <circle cx="96.2" cy="68.4" r="11.5"/>
    <path d="M147.8 80.2c-10.8 1.2-19.5-.9-26.3-6.4-6.7-5.5-10.6-13.7-11.6-24.7-.7-8 .3-15.8 3.1-23.2 2.8-7.5 7.2-13.5 13.3-18.2 6-4.7 13-7.2 21-7.7 10.6-.6 19.2 2 25.9 7.8 6.6 5.8 10.4 14.2 11.2 25.1.5 7.2-.5 14.3-3 21.3-2.6 7-6.4 12.9-11.6 17.5l9.6 10-10.1 9.3-10.2-10.7c-3.5 1.2-7.2 1.8-11.3 1.9Zm.6-15.1c2.3-.1 4.4-.5 6.4-1.2l-10.9-11.4 10.2-9.4 9.7 10.2c2.7-5.5 3.8-11.8 3.3-19-.5-6.4-2.3-11.3-5.5-14.7-3.1-3.5-7.4-5-12.8-4.6-6.2.5-11.2 3.6-15 9.4-3.8 5.7-5.8 13.5-6 23.3-.1 6.2 1.5 10.8 4.9 13.7 3.3 2.9 8.5 4.1 15.7 3.7Z"/>
    <circle cx="207" cy="51.2" r="11.5"/>
    <path d="M213.1 71.1 258.6 1.4l20.9-1.4 24.7 65.2-19.3 1.4-4.7-14.4-33.1 2.4-8.8 15.1-25.2 1.4Zm42.8-31.4 20.4-1.5-7.5-23.3-12.9 24.8Z"/>
  </g>
</svg>
