<svg xmlns="http://www.w3.org/2000/svg" width="160" height="112" viewBox="0 0 2520 1760" role="img" aria-labelledby="title desc">
  <title id="title">Rugby ball outline logo</title>
  <desc id="desc">White rugby ball outline on a transparent background.</desc>
  <path fill="#fff" d="M2.000000,1214.000000
	C2.000000,1211.866577 2.000000,1209.733276 2.695092,1207.136719
	C5.880444,1202.125122 6.930254,1197.734619 2.000000,1194.000000
	C2.000000,1167.291504 2.000000,1140.583130 2.664909,1112.706055
	C3.807134,1108.127441 4.371429,1104.724243 4.634109,1101.297729
	C4.661942,1100.934570 2.920583,1100.435791 1.999998,1100.000000
	C2.000000,1098.500000 2.000000,1097.000000 2.712297,1095.312012
	C7.873585,1089.229980 6.634214,1081.962646 7.772904,1075.381958
	C13.869561,1040.148682 20.201509,1005.082153 31.132210,970.848083
	C50.247673,910.979980 75.240959,853.854553 106.402199,799.307983
	C156.417633,711.758057 218.470169,633.441162 288.557373,561.316895
	C307.101776,542.233459 326.468933,523.915283 346.021088,505.854980
	C365.561890,487.805206 385.288971,469.886536 405.845093,453.020325
	C459.923828,408.648956 516.143005,367.163330 575.001404,329.258942
	C617.273560,302.035950 660.175598,275.881073 704.750549,252.654724
	C744.863708,231.753220 785.280273,211.369781 826.159485,192.017700
	C888.457581,162.525925 952.554749,137.263855 1017.678345,114.729500
	C1095.064331,87.952065 1173.628906,65.216728 1253.593506,47.368660
	C1296.429443,37.807724 1339.398193,29.122854 1382.972656,23.648205
	C1407.027100,20.626049 1431.031738,17.168442 1455.126465,14.521647
	C1473.932495,12.455811 1492.842773,11.337461 1512.148071,9.764772
	C1513.183228,9.586535 1513.677490,9.280820 1514.975342,8.655327
	C1529.773926,7.563135 1543.672974,6.674190 1557.562012,5.649776
	C1559.681030,5.493480 1562.585083,5.707356 1562.000000,2.000000
	C1624.041748,2.000000 1686.083618,2.000000 1748.574951,2.655551
	C1749.296021,3.783335 1749.567505,4.255569 1750.191528,5.025428
	C1751.086060,5.656015 1751.674927,5.810365 1753.221680,5.786305
	C1786.862305,8.693326 1819.731079,10.527076 1852.289795,14.750479
	C1905.328125,21.630402 1957.804443,31.763075 2009.545044,45.638500
	C2080.809326,64.749756 2149.459473,90.349266 2214.394043,125.624626
	C2281.614502,162.141663 2341.935059,207.455917 2393.013184,264.690125
	C2423.299316,298.626312 2449.003418,335.722290 2469.769287,376.180725
	C2478.712158,393.603546 2487.558594,411.086060 2493.132812,430.024963
	C2499.035400,450.079559 2505.789062,469.889893 2511.395996,490.022766
	C2514.487305,501.122528 2515.952637,512.672546 2518.237793,524.002014
	C2518.637207,525.981689 2518.088623,529.185852 2522.000000,528.000000
	C2522.000000,573.375122 2522.000000,618.750244 2521.610840,665.277893
	C2521.083252,666.694580 2520.776367,667.138977 2520.834717,667.193420
	C2521.175781,667.512817 2521.602295,667.741089 2522.000000,668.000000
	C2522.000000,672.741150 2522.000000,677.482239 2521.160645,682.911987
	C2519.580078,685.289795 2518.401123,686.923279 2518.177979,688.678345
	C2517.467285,694.265259 2517.641113,700.005432 2516.519287,705.491394
	C2513.350830,720.986084 2509.834473,736.413513 2506.214844,751.810974
	C2502.507812,767.581177 2499.194092,783.488525 2494.526611,798.979980
	C2478.713135,851.468872 2456.612061,901.331421 2430.327393,949.384705
	C2413.218994,980.662048 2395.292969,1011.478149 2374.616943,1040.527100
	C2332.862549,1099.190186 2285.976562,1153.660522 2236.365723,1205.736938
	C2199.615479,1244.313477 2160.556152,1280.498535 2119.354492,1314.367798
	C2043.796631,1376.479126 1962.702148,1430.503784 1878.521851,1480.041504
	C1822.537964,1512.986450 1765.110107,1543.194092 1706.178223,1570.562500
	C1651.210938,1596.089478 1595.421143,1619.604248 1538.488525,1640.383423
	C1448.664917,1673.166870 1357.259521,1700.628784 1263.615601,1720.133667
	C1221.668457,1728.870605 1179.461792,1736.507568 1137.168457,1743.386353
	C1108.007202,1748.129272 1078.513306,1750.874390 1049.132324,1754.196899
	C1033.957397,1755.913086 1018.702271,1756.915527 1003.489685,1758.308716
	C1001.084106,1758.529053 997.826538,1757.805542 998.000000,1762.000000
	C932.624878,1762.000000 867.249756,1762.000000 800.462646,1761.759033
	C797.367126,1761.678589 795.683594,1761.839355 794.000000,1762.000000
	C792.500000,1762.000000 791.000000,1762.000000 788.535889,1761.742188
	C787.047852,1761.656250 786.523926,1761.828125 786.000000,1762.000000
	C777.286194,1762.000000 768.572388,1762.000000 759.046753,1761.175781
	C756.450134,1759.658691 754.712280,1758.539551 752.873535,1758.337280
	C727.795837,1755.577515 702.670288,1753.226318 677.623474,1750.217773
	C634.694824,1745.061157 592.260376,1737.018188 550.182556,1727.133301
	C469.864990,1708.265259 392.312714,1681.856812 319.303436,1642.859375
	C270.656799,1616.875244 225.044357,1586.555542 183.721512,1549.963013
	C155.514297,1524.984863 129.512665,1497.842896 106.990356,1467.619751
	C84.675568,1437.675171 65.208771,1405.960327 49.749424,1371.815186
	C34.032639,1337.101318 21.745893,1301.309082 14.105919,1263.989380
	C10.911530,1248.385498 8.628456,1232.595825 5.841884,1216.906494
	C5.504413,1215.006592 5.748626,1211.679565 2.000000,1214.000000
M1711.013794,166.923737
	C1709.895996,166.698013 1708.778076,166.472305 1705.828735,166.222290
	C1689.591553,166.688568 1673.356567,167.269424 1657.116455,167.589539
	C1640.179810,167.923401 1623.238159,168.005966 1605.405396,168.276855
	C1604.806885,168.432388 1604.308350,168.746719 1602.077759,169.528275
	C1591.134766,170.236847 1580.160645,170.632339 1569.254517,171.713135
	C1537.528687,174.857224 1505.768555,177.778198 1474.133667,181.690964
	C1409.725830,189.657211 1346.151489,202.259140 1283.058838,217.377869
	C1206.600342,235.699356 1131.505249,258.511902 1057.618530,285.364410
	C1001.278198,305.839996 945.946045,328.748047 891.522522,353.856995
	C835.846863,379.543579 781.652893,408.080780 728.633484,438.862457
	C662.871582,477.042145 599.546753,518.937744 539.839844,566.007690
	C507.982758,591.122192 477.707703,618.250549 446.854767,644.629272
	C424.548889,663.700378 404.528503,685.112854 385.161469,707.067444
	C363.858124,731.216980 343.564606,756.255493 322.356995,780.491760
	C269.599365,840.783752 231.791138,909.778687 203.120575,984.119019
	C196.263718,1001.898254 190.017548,1019.918457 188.736206,1039.205444
	C187.973511,1050.685791 190.885941,1061.373779 202.696350,1066.471069
	C209.976669,1069.613159 217.583771,1072.320435 225.306854,1074.049561
	C243.262772,1078.069580 261.403564,1078.851196 279.783966,1076.447144
	C306.132568,1073.000244 332.752625,1071.342651 358.939453,1067.005249
	C414.075470,1057.873169 468.486572,1045.088745 522.476746,1030.719482
	C575.838196,1016.517456 629.213074,1002.263550 682.123901,986.495422
	C758.327759,963.785889 834.341614,940.383118 910.030029,916.013611
	C1017.717590,881.341248 1124.498169,843.946716 1230.261963,803.786438
	C1309.900269,773.546448 1389.246094,742.494263 1468.226929,710.578186
	C1530.559204,685.389771 1592.460693,659.067749 1653.962280,631.910278
	C1719.416626,603.007324 1784.413086,573.034302 1849.146240,542.544922
	C1887.085083,524.675720 1924.487915,505.574585 1961.461304,485.775391
	C2001.070923,464.564545 2040.330444,442.616760 2078.919189,419.609009
	C2108.930176,401.715424 2138.585205,382.795746 2162.029053,356.198975
	C2170.555908,346.525299 2178.344727,336.064606 2185.370117,325.248322
	C2190.748535,316.967804 2189.088135,310.043396 2182.837158,302.589264
	C2174.156982,292.238403 2163.329834,284.543274 2152.029785,277.477844
	C2105.449463,248.352631 2055.373291,226.800812 2003.125000,210.377426
	C1958.005249,196.194778 1911.860352,186.281448 1865.009399,179.483017
	C1825.505249,173.750671 1785.869507,169.842621 1746.000366,168.239227
	C1734.685913,167.784210 1723.356689,167.702454 1711.013794,166.923737
M896.361511,1599.459961
	C896.982849,1599.267578 897.550049,1598.971558 899.921875,1598.399170
	C913.529175,1597.716919 927.169861,1597.425903 940.736816,1596.270142
	C968.196777,1593.930908 995.623901,1591.195801 1023.051514,1588.491577
	C1066.745361,1584.183228 1109.937012,1576.632812 1153.046143,1568.461792
	C1243.712280,1551.276245 1332.635986,1527.529541 1420.023560,1497.980591
	C1488.159180,1474.941284 1555.019287,1448.735107 1620.426514,1418.694092
	C1664.614136,1398.399048 1708.178467,1376.936401 1750.867676,1353.727295
	C1822.014526,1315.046387 1890.314941,1271.801270 1955.647705,1223.921997
	C2008.600464,1185.115479 2059.142334,1143.338989 2105.969971,1097.348389
	C2131.814941,1071.965576 2156.485596,1045.270386 2180.295410,1017.955078
	C2236.644043,953.310730 2283.432129,882.414551 2316.378174,802.885803
	C2325.937988,779.808716 2334.750977,756.448792 2340.566895,730.825623
	C2340.779541,729.176025 2340.992188,727.526367 2341.531494,724.223511
	C2341.283936,720.890808 2341.036621,717.558044 2340.755127,713.459900
	C2340.616455,712.936768 2340.313721,712.538452 2339.329590,711.000916
	C2333.079346,699.465149 2322.378906,693.725647 2310.668701,689.728210
	C2292.903809,683.664062 2274.471924,683.593384 2255.213867,684.649902
	C2254.679443,684.796936 2254.311279,685.128357 2252.240723,685.718262
	C2225.494629,685.503723 2199.126709,689.698242 2173.069824,694.644836
	C2127.690918,703.259399 2082.286377,712.213745 2037.541016,723.578430
	C1969.852661,740.770447 1902.387695,759.030579 1835.440308,778.900574
	C1760.484619,801.147461 1685.967041,824.953430 1611.714966,849.462524
	C1545.673218,871.261536 1480.155029,894.666809 1414.589722,917.883179
	C1349.041992,941.093384 1283.660278,964.777466 1218.321045,988.569885
	C1156.105347,1011.224915 1093.951904,1034.056763 1031.930664,1057.237915
	C972.388611,1079.492554 912.860657,1101.808228 853.671082,1124.977295
	C776.185303,1155.308228 699.159546,1186.758789 623.435852,1221.365845
	C577.691040,1242.272095 532.288757,1263.803223 488.267303,1288.118164
	C445.669373,1311.646851 403.859833,1336.455566 367.989319,1369.912231
	C353.530975,1383.397583 340.744812,1398.219727 332.504974,1416.456421
	C325.130402,1432.778076 327.591919,1447.890259 339.545959,1460.882446
	C345.802826,1467.682495 353.000214,1473.870483 360.601410,1479.139648
	C412.539764,1515.143066 469.805328,1539.867065 530.062988,1558.051514
	C601.083862,1579.484375 674.049683,1589.942505 747.767578,1595.603271
	C776.920105,1597.841797 806.187683,1598.802612 835.422974,1599.664062
	C855.399780,1600.252930 875.411377,1599.662476 896.361511,1599.459961
z"/>
</svg>
